<?xml version="1.0" encoding="utf-8"?>
<!-- Generator: Adobe Illustrator 12.0.0, SVG Export Plug-In . SVG Version: 6.00 Build 51448)  -->
<!DOCTYPE svg PUBLIC "-//W3C//DTD SVG 1.1//EN" "http://www.w3.org/Graphics/SVG/1.1/DTD/svg11.dtd" [
	<!ENTITY ns_svg "http://www.w3.org/2000/svg">
	<!ENTITY ns_xlink "http://www.w3.org/1999/xlink">
]>
<svg  version="1.1" id="Layer_1" xmlns="&ns_svg;" xmlns:xlink="&ns_xlink;" width="701.572" height="123.538"
	 viewBox="0 0 701.572 123.538" overflow="visible" enable-background="new 0 0 701.572 123.538" xml:space="preserve">
<g>
	<path fill-rule="evenodd" clip-rule="evenodd" fill="#003263" d="M692.842,77.316c-4.738,0-8.764,3.647-8.764,8.605
		c0,4.988,4.025,8.621,8.764,8.621c4.706,0,8.73-3.633,8.73-8.621C701.572,80.964,697.548,77.316,692.842,77.316L692.842,77.316z
		 M692.842,93.122c-3.951,0-7.023-3.054-7.023-7.2c0-4.102,3.072-7.178,7.023-7.178c3.919,0,6.984,3.076,6.984,7.178
		C699.826,90.068,696.761,93.122,692.842,93.122L692.842,93.122z"/>
	<path fill-rule="evenodd" clip-rule="evenodd" fill="#003263" d="M694.227,86.516c1.476-0.161,2.578-0.952,2.578-2.725
		c0-1.971-1.146-2.827-3.509-2.827h-3.786v9.946h1.498v-4.321h1.735l2.626,4.321h1.695L694.227,86.516L694.227,86.516z
		 M691.008,85.329v-3.076h2.051c1.047,0,2.171,0.212,2.171,1.45c0,1.523-1.124,1.626-2.409,1.626H691.008L691.008,85.329z"/>
	<path fill-rule="evenodd" clip-rule="evenodd" fill="#003263" d="M108.705,37.365c2.459,0.025,4.147,0.772,5.515,1.419
		c2.847,1.344,6.18,2.897,10.356,4.902c0,0.022,6.751-4.781,7.108-5.024c2.289-1.569,4.499-0.379,5.211,0.967
		c2.518,4.742,7.156,14.59,9.604,23.595c0.292,1.086-0.053,2.771-1.747,3.275c-0.972,0.286-2.649,0.527-4.406,0.748
		c-2.442,0.307-2.393,2.277-2.393,3.471c0,1.473,0.019,11.426,0.019,14.824c0.059,2.088-1.537,8.906-9.421,8.899
		c-0.527,0-18.062-0.007-17.977-0.007c-6.801,0.036-12.269-5.713-12.303-11.829c-0.007-4.021-0.003-32.016,0.009-35.156
		C98.306,41.386,103.748,37.306,108.705,37.365L108.705,37.365z"/>
	<path fill-rule="evenodd" clip-rule="evenodd" fill="#003263" d="M80.27,94.44H21.812v6.497h68.595c0,0,2.472-5.75,2.472-12.093
		c0-0.345,0.025-44.083,0.025-44.083c0-3.474,1.414-9.34,8.553-10.897c0.198-0.044,0.401-0.086,0.599-0.128
		c20.255-4.785,41.122-0.427,52.879,4.649c2.125,1.025,2.613-0.67,2.542-1.384c0.256-9.91-7.273-21.196-21.132-21.879
		c-11.248-0.262-17.49,3.785-19.783,4.907c-0.174,0.084-0.461,0.045-0.718-0.24c-2.073-2.053-6.506-5.114-11.484-6.541
		c-0.743-0.165-0.815-1.256,0.046-1.351c10.647-1.146,19.969,0.062,23.858,0.697c0.896,0.145,1.56-0.379,1.207-1.207
		c-0.268-0.621-0.495-0.919-0.945-1.886c-0.948-2.035-3.455-4.197-6.645-5.088c-8.366-2.326-22.623-4.338-35.323-4.413
		C72.261-0.086,57.197,2.771,53.39,3.618c-0.912,0.202-2.194,0.527-2.42,0.573c-1.042,0.207-1.288,1.19-0.837,1.685
		c0.284,0.312,1.067,0.971,1.444,1.434c0.473,0.59,0.692,1.427-0.208,2.3L24.938,33.358h18.087l0.207-0.019
		c1.176-0.025,2.287,1.042,2.294,2.397c0.005,1.219-0.972,2.368-2.205,2.368l-0.158,0.011H19.673l-7.188,6.531h30.76l0.168-0.011
		c1.21,0.007,2.148,1.264,2.131,2.4c-0.013,1.053-0.901,2.34-2.131,2.34l-0.185,0.009H7.215l-7.207,6.509h62.133l0.198,0.009
		c1.223,0,2.168,1.256,2.187,2.349c0.016,1.278-0.883,2.432-2.137,2.42l-0.167-0.002H0v6.486h62.08l0.19,0.021
		c1.423,0,2.245,1.289,2.241,2.476c-0.005,1.077-1.042,2.233-2.274,2.233h-0.165H0v6.549h81.046h0.198
		c1.346,0.036,2.21,1.193,2.172,2.453c-0.033,1.099-0.949,2.277-2.168,2.277l-0.169-0.007H21.825v6.526H80.27h1.223
		c1.101,0,2.047,1.361,2.047,2.461c0,1.098-0.967,2.292-2.067,2.292H80.27L80.27,94.44z"/>
	<path fill-rule="evenodd" clip-rule="evenodd" fill="#003263" d="M43.636,116.889l-0.011,6.637c0,0,8.787,0.029,13.793,0
		c12.345-0.074,20.446-6.637,20.446-6.637H43.636L43.636,116.889z"/>
	<path fill-rule="evenodd" clip-rule="evenodd" fill="#003263" d="M43.636,105.697l-0.011,6.504h39.677
		c1.834-1.846,4.193-5.244,4.807-6.496L43.636,105.697L43.636,105.697z"/>
	<path fill-rule="evenodd" clip-rule="evenodd" fill="#003263" d="M683.525,65.51c-0.007-0.125-0.025-0.234-0.033-0.352
		c-0.227-5.061-1.907-9.578-4.266-13.081c-4.918-7.712-13.543-11.869-23.921-11.743c-10.379-0.126-19.007,4.03-23.925,11.743
		c-2.358,3.503-4.039,8.02-4.263,13.081c-0.011,0.117-0.029,0.227-0.036,0.352c-1.414,16.926,8.448,28.638,25.265,29.985
		c1.007,0.081,1.992,0.117,2.959,0.103c0.967,0.015,1.948-0.021,2.951-0.103C675.077,94.147,684.943,82.436,683.525,65.51
		L683.525,65.51z M656.605,87.549c-0.447,0.036-0.883,0.051-1.3,0.059c-0.421-0.008-0.854-0.022-1.3-0.059
		c-2.473-0.228-4.413-1.106-6.189-2.469c-0.502-0.418-1.004-0.9-1.49-1.443c-2.582-2.922-3.984-7.888-4.314-11.82
		c-0.766-9.15,1.077-22.519,12.316-23.418c0.285-0.025,0.567-0.038,0.846-0.044c0.044,0,0.084-0.003,0.132,0
		c0.04-0.003,0.084,0,0.132,0c0.278,0.006,0.561,0.019,0.846,0.044c11.239,0.899,13.074,14.268,12.313,23.418
		c-0.33,3.933-1.586,8.803-4.318,11.82c-0.486,0.543-0.981,1.025-1.482,1.443C661.015,86.442,658.912,87.365,656.605,87.549
		L656.605,87.549z"/>
	<path fill-rule="evenodd" clip-rule="evenodd" fill="#003263" d="M571.707,52.912c0-4.189,0.414-11.55,0.414-11.55h-0.022h-13.766
		h-0.022c0,0,0.414,7.361,0.414,11.55l-0.029,30.168c0,4.183-0.377,11.324-0.377,11.324h0.025h13.74h0.033
		c0,0-0.381-7.142-0.381-11.324L571.707,52.912L571.707,52.912z"/>
	<path fill-rule="evenodd" clip-rule="evenodd" fill="#003263" d="M491.166,86.201c-2.879,0-6.669,0-9.588,0.007
		c-0.131-5.325-0.189-10.474-0.208-15.153l-0.011-0.726h0.007c0-0.044,0-0.088,0-0.124h15.923v-7.502h-15.908
		c0.048-8.079,0.197-13.382,0.197-13.382l19.772-0.017v-7.952c-13.817,0.051-33.772,0-33.772,0s0.297,7.324,0.297,11.508v30.11
		c0,3.83-0.242,10.334-0.282,11.418h35.054l0.029-8.415C502.676,85.974,495.773,86.201,491.166,86.201L491.166,86.201z"/>
	<path fill-rule="evenodd" clip-rule="evenodd" fill="#003263" d="M261.312,86.201c-2.88,0-6.67,0-9.589,0.007
		c-0.132-5.325-0.19-10.474-0.21-15.153l-0.009-0.719h0.009c0-0.051,0-0.095,0-0.131h15.921v-7.502h-15.908
		c0.046-8.073,0.198-13.382,0.198-13.382l19.766-0.013v-7.952c-13.813,0.047-33.768,0-33.768,0s0.298,7.32,0.298,11.504v30.11
		c0,3.83-0.24,10.342-0.282,11.418h35.055l0.024-8.415C272.816,85.974,265.919,86.201,261.312,86.201L261.312,86.201z"/>
	<path fill-rule="evenodd" clip-rule="evenodd" fill="#003263" d="M536.291,65.869l15.219-24.495h-10.543l-0.084,0.224
		c-3.193,5.519-7.163,12.188-8.745,14.626l-0.611,0.99l-8.818-15.84h-15.854l15.286,27.424L506.21,94.404h10.484
		c6.794-11.609,10.28-16.949,10.28-16.949l9.459,16.949h15.787L536.291,65.869L536.291,65.869z"/>
	<path fill-rule="evenodd" clip-rule="evenodd" fill="#003263" d="M614.711,87.182c-12.265,0-18.875-9.016-18.541-20.119
		c0.289-9.67,4.717-17.893,15.245-18.598c4.032-0.269,7.324,0.43,12.985,1.952l-0.578-8.288c0,0-4.79-1.531-11.664-1.794
		c-8.741-0.332-16.647,1.355-22.965,7.165c-5.61,5.164-8.973,12.799-8.973,20.208c0,8.211,3.373,15.776,9.713,21.006
		c6.584,5.552,13.652,6.805,22.045,6.805c5.516,0,8.757-0.367,14.107-1.81l-0.799-8.138
		C624.148,85.959,620.281,87.182,614.711,87.182L614.711,87.182z"/>
	<path fill-rule="evenodd" clip-rule="evenodd" fill="#003263" d="M437.604,33.417l15.37-0.009l0.425,3.54
		c3.432,35.433,5.541,57.471,5.541,57.471h-15.996l-1.586-21.957l-1.465-19.607l-13.55,41.535c-3.581,0.016-8.558,0-8.558,0
		s-4.296-14.758-5.076-16.823l-7.764-24.91c0,0-1.193,13.872-1.651,19.805c-0.935,11.895-1.766,21.957-1.766,21.957h-11.935
		c0,0,4.885-49.603,5.248-52.624c0.369-3.111,0.959-8.383,0.959-8.383h15.686l13.011,35.724L437.604,33.417L437.604,33.417z"/>
	<path fill-rule="evenodd" clip-rule="evenodd" fill="#003263" d="M383.152,65.576c-0.008-0.117-0.025-0.228-0.037-0.349
		c-0.223-5.037-1.893-9.54-4.244-13.024c-4.896-7.674-13.48-11.818-23.813-11.688c-10.333-0.13-18.922,4.014-23.82,11.688
		c-2.348,3.484-4.023,7.987-4.247,13.024c-0.007,0.121-0.024,0.231-0.033,0.349c-1.408,16.853,8.414,28.513,25.159,29.854
		c0.994,0.08,1.977,0.109,2.941,0.102c0.961,0.008,1.938-0.021,2.938-0.102C374.736,94.089,384.559,82.429,383.152,65.576
		L383.152,65.576z M356.353,87.52c-0.446,0.036-0.877,0.051-1.294,0.059c-0.424-0.008-0.85-0.016-1.297-0.059
		c-2.459-0.228-4.391-1.1-6.163-2.454c-0.498-0.425-0.996-0.894-1.478-1.442c-2.573-2.9-3.97-7.852-4.298-11.771
		c-0.762-9.103,1.069-22.417,12.259-23.311c0.288-0.022,0.566-0.033,0.845-0.041c0.044,0,0.084,0,0.132,0c0.04,0,0.084,0,0.13,0
		c0.272,0.007,0.557,0.019,0.842,0.041c11.191,0.894,13.019,14.208,12.257,23.311c-0.325,3.919-1.578,8.767-4.295,11.771
		c-0.487,0.541-0.981,1.018-1.479,1.442C360.74,86.42,358.646,87.336,356.353,87.52L356.353,87.52z"/>
	<path fill-rule="evenodd" clip-rule="evenodd" fill="#003263" d="M234.399,94.389c-0.463-1.091-3.312-7.814-5.4-13.249
		l-17.922-47.729H197.13c0,0-3.982,11.181-4.552,13.034l-13.086,37.009c-1.71,4.731-4.082,10.95-4.082,10.95h11.384
		c0,0,3.223-10.299,3.889-12.151l1.75-5.149h19.743l2.689,7.838c0.566,1.472,2.904,9.33,2.939,9.447H234.399L234.399,94.389z
		 M195.319,68.418l6.65-19.745l0.379-1.154l6.949,20.898H195.319L195.319,68.418z"/>
	<path fill-rule="evenodd" clip-rule="evenodd" fill="#003263" d="M327.66,94.404c-3.296-4.739-4.512-6.695-7.039-10.174
		l-9.512-14.78c4.574-2.241,8.868-6.037,9.521-13.951c0.406-4.955-2.243-9.067-3.823-10.468c-2.285-2.031-4.523-2.851-7.687-3.232
		c-2.527-0.337-4.361-0.359-5.889-0.459h-22.394c0,0,0.269,7.337,0.269,11.526v29.995c0,4.189-0.269,11.527-0.269,11.527h13.779
		c0,0-0.41-7.338-0.41-11.527l0.097-9.625c0,0,2.996,0.008,5.105,0.016l8.721,15.974c1.178,2.036,2.86,4.577,3.261,5.179H327.66
		L327.66,94.404z M303.307,64.788c-2.062,1.073-6.704,0.772-9.003,0.634l0.178-15.156l1.291-0.088
		c4.219-0.34,7.304,0.24,8.573,0.802c1.89,0.835,3.005,2.629,3.105,5.61C307.606,61.059,305.905,63.442,303.307,64.788
		L303.307,64.788z"/>
</g>
</svg>
