<?xml version="1.0" encoding="UTF-8"?>
<svg id="Layer_2" data-name="Layer 2" xmlns="http://www.w3.org/2000/svg" xmlns:xlink="http://www.w3.org/1999/xlink" viewBox="0 0 193.42 72">
  <defs>
    <style>
      .cls-1 {
        fill: url(#linear-gradient-4);
      }

      .cls-2 {
        fill: url(#linear-gradient-3);
      }

      .cls-3 {
        fill: url(#linear-gradient-2);
      }

      .cls-4 {
        fill: url(#linear-gradient);
      }

      .cls-5 {
        fill: #45586a;
      }
    </style>
    <linearGradient id="linear-gradient" x1="167.01" y1="40.86" x2="167.01" y2="87.61" gradientUnits="userSpaceOnUse">
      <stop offset="0" stop-color="#ed1c24"/>
      <stop offset=".15" stop-color="#e81b23"/>
      <stop offset=".3" stop-color="#dc1a21"/>
      <stop offset=".45" stop-color="#c7171d"/>
      <stop offset=".61" stop-color="#aa1418"/>
      <stop offset=".76" stop-color="#850f11"/>
      <stop offset=".81" stop-color="#780e0f"/>
    </linearGradient>
    <linearGradient id="linear-gradient-2" x1="145.72" y1="44.75" x2="162.78" y2="44.75" gradientUnits="userSpaceOnUse">
      <stop offset="0" stop-color="#69231d"/>
      <stop offset=".23" stop-color="#882820"/>
      <stop offset=".57" stop-color="#af2e25"/>
      <stop offset=".84" stop-color="#c83228"/>
      <stop offset="1" stop-color="#d1342a"/>
    </linearGradient>
    <linearGradient id="linear-gradient-3" x1="143.85" y1="42.26" x2="162.86" y2="30.84" gradientUnits="userSpaceOnUse">
      <stop offset=".1" stop-color="#eff2f4"/>
      <stop offset=".33" stop-color="#dce2e5"/>
      <stop offset=".8" stop-color="#acbac1"/>
      <stop offset="1" stop-color="#96a7b0"/>
    </linearGradient>
    <linearGradient id="linear-gradient-4" x1="133.37" y1="32.64" x2="133.37" y2=".34" gradientUnits="userSpaceOnUse">
      <stop offset="0" stop-color="#1c2f72"/>
      <stop offset=".05" stop-color="#193a7c"/>
      <stop offset=".26" stop-color="#1063a3"/>
      <stop offset=".47" stop-color="#0984c2"/>
      <stop offset=".66" stop-color="#049bd9"/>
      <stop offset=".84" stop-color="#01aae6"/>
      <stop offset="1" stop-color="#00afeb"/>
    </linearGradient>
  </defs>
  <g id="Layer_1-2" data-name="Layer 1">
    <g id="American_Airlines_Logo" data-name="American Airlines Logo">
      <path id="American_Airlines" data-name="American Airlines" class="cls-5" d="M111.06,36.14v-9.4c0-1.8-.82-2.89-2.35-2.89-2.03,0-3.38,2.16-3.38,5.09v7.21h-3.31v-10.69c0-1.18-.11-2.89-.16-3.87h2.65c.3,0,.39.12.39.4,0,.3.03,1.81.03,1.81h.07c.41-.68,1.42-2.52,4.46-2.52s4.9,2.15,4.9,4.56v10.31h-3.3ZM85.23,32.94c.09,0,.21.05.23.31.06.7.09,1.83.09,2.18-.66.33-2.09.98-3.84.98-4.41,0-7.11-2.56-7.11-7.56,0-4.69,2.41-7.57,7.11-7.57,1.56,0,3,.54,3.84.98,0,.52-.05,1.69-.09,2.19-.02.2-.12.3-.23.3-.13,0-.18-.03-.26-.07-1.06-.52-2.06-.77-2.96-.77-2.81,0-3.96,1.84-3.96,4.94,0,2.77.92,4.94,3.96,4.94,1.16,0,2.22-.41,2.88-.73.17-.09.2-.12.34-.12ZM96.65,36.14c-.27,0-.48-.09-.52-.48-.03-.47-.1-1.39-.1-1.39h-.04c-.2.27-1.4,2.14-4.43,2.14s-4.55-2.23-4.55-4.68c0-3.39,3.3-5.1,8.19-5.1h.65v-.53c0-1.52-1.09-2.34-3.11-2.34-1.82,0-3.34.64-3.92.95-.04.02-.15.08-.25.08-.15,0-.24-.09-.25-.27-.02-.55-.09-1.59-.09-2.26.59-.23,2.58-.97,4.75-.97,4.32,0,6.18,2.02,6.18,5.21v5.68c0,2.07.2,3.42.26,3.97h-2.77ZM95.85,28.76h-.56c-4.15,0-4.96,1.45-4.96,2.91,0,1.2.79,2.34,2.34,2.34,2.06,0,3.19-1.99,3.19-4.09v-1.16ZM54.41,32.94c.18,0,.23.16.25.33.05.62.11,2.02.1,2.38-.35.11-2.13.76-4.51.76-4.64,0-7.42-2.4-7.42-7.56,0-4.42,2.37-7.57,6.65-7.57s6.19,2.8,6.19,6.28c0,.41-.05,1.1-.12,2.02h-9.33c0,2.49,1.58,4.27,4.5,4.27,1.62,0,2.9-.58,3.42-.83.1-.05.16-.09.27-.09ZM46.26,27.36h6.11c.12-2.34-1.1-3.66-2.96-3.66s-3.06,1.41-3.15,3.66ZM37.11,36.14v-9.32c0-1.67-.7-2.98-2.42-2.98-1.92,0-3.04,2.11-3.04,5.06v7.23h-3.3v-9.35c0-1.52-.64-2.95-2.41-2.95-1.95,0-3.05,2.11-3.05,5.17v7.12h-3.31v-10.6c0-1.37-.12-3.31-.16-3.96h2.64c.3,0,.39.1.41.41,0,.39.02,1.81.02,1.81h.08c.2-.41,1.29-2.52,4.32-2.52,2.83,0,3.91,2.03,4.17,2.66.27-.55,1.52-2.66,4.37-2.66s4.98,1.59,4.98,4.79v10.07h-3.31ZM61.51,29.04v7.1h-3.31v-10.82c0-1.04-.12-3.02-.16-3.74h2.67c.29,0,.37.12.37.41,0,.43.03,1.81.03,1.81h.08c.26-.62,1.2-2.51,3.95-2.51.91,0,1.6.29,1.71.34,0,.62-.07,2-.1,2.37-.02.23-.12.31-.24.31s-.16-.02-.23-.05c-.21-.09-.69-.23-1.35-.23-1.77,0-3.42,1.27-3.42,5.02ZM68.61,36.14v-14.56h3.3v14.56h-3.3ZM68.57,19.46v-3.19h3.38v3.19h-3.38ZM14.58,36.14l-1.52-4.29H4.97l-1.52,4.29H0l7.25-19.11h3.84l7.14,19.11h-3.66ZM9.05,20.51h-.06l-3.09,8.75h6.25l-3.09-8.75ZM108.01,60.27c4.3,0,6.35-1.76,6.35-4.37s-1.83-3.66-3.77-4.3c-.55-.18-1.1-.37-1.6-.53-1.33-.44-2.02-1.02-2.02-1.88,0-.91.83-1.54,2.55-1.54,1.53,0,2.78.62,3.28.86.08.04.16.09.29.09.1,0,.23-.06.25-.32.03-.48.09-1.37.09-2.22-.4-.19-1.84-.93-4.17-.93-3.55,0-5.74,1.85-5.74,4.29s1.62,3.44,3.4,4.03c.41.14,1.16.39,1.61.54,1.86.62,2.38,1.18,2.38,2.05,0,1.13-1.2,1.69-3.28,1.69-1.7,0-2.87-.62-3.34-.84-.09-.04-.15-.09-.28-.09-.24,0-.25.32-.25.38-.02.16-.09,1.66-.09,2.17.39.16,2.08.92,4.35.92ZM100.27,56.8c.19,0,.24.16.26.32.05.62.1,2.03.1,2.38-.36.12-2.13.77-4.52.77-4.63,0-7.42-2.39-7.42-7.56,0-4.43,2.37-7.58,6.65-7.58s6.19,2.8,6.19,6.29c0,.41-.04,1.1-.12,2.02h-9.33c0,2.48,1.59,4.28,4.51,4.28,1.61,0,2.9-.58,3.41-.83.1-.05.16-.09.27-.09ZM92.12,51.22h6.12c.12-2.35-1.11-3.66-2.97-3.66s-3.06,1.41-3.15,3.66ZM82.98,60v-9.4c0-1.8-.82-2.89-2.36-2.89-2.03,0-3.38,2.16-3.38,5.08v7.21h-3.3v-10.7c0-1.17-.11-2.89-.16-3.86h2.66c.3,0,.38.12.38.4,0,.3.04,1.81.04,1.81h.07c.4-.69,1.41-2.52,4.46-2.52s4.89,2.15,4.89,4.55v10.31h-3.3ZM52.89,52.9v7.1h-3.31v-10.82c0-1.04-.12-3.02-.16-3.74h2.66c.29,0,.37.12.38.41,0,.43.02,1.8.02,1.8h.08c.26-.62,1.2-2.52,3.95-2.52.91,0,1.59.3,1.71.34,0,.62-.07,2-.1,2.37-.02.23-.12.31-.24.31-.11,0-.16-.02-.23-.05-.21-.09-.69-.23-1.35-.23-1.77,0-3.42,1.27-3.42,5.02ZM63.42,60v-19.86h-3.3v19.86h3.3ZM42.68,60v-14.56h3.3v14.56h-3.3ZM42.64,43.31v-3.2h3.38v3.2h-3.38ZM67.03,60v-14.56h3.3v14.56h-3.3ZM66.99,43.31v-3.2h3.38v3.2h-3.38ZM37.66,60l-1.51-4.3h-8.1l-1.52,4.3h-3.45l7.25-19.12h3.85l7.14,19.12h-3.66ZM32.13,44.37h-.05l-3.09,8.75h6.25l-3.1-8.75Z"/>
      <g id="Flight_Symbol" data-name="Flight Symbol">
        <path id="Red_Gradient" data-name="Red Gradient" class="cls-4" d="M154.13,65.36c4.12,6.78,10.71,6.64,12.46,6.64h21.18l-24.99-30.34c-11.53.48-17.63,7.87-16.38,10.97l7.73,12.72Z"/>
        <path id="Beak_Shadow" data-name="Beak Shadow" class="cls-3" d="M146.41,52.63c-.03-.05-.68-1.58-.68-3.43,0-6.93,6.14-10.89,13.12-12.33l3.95,4.79c-11.53.48-17.63,7.87-16.38,10.97Z"/>
        <path id="Beak" class="cls-2" d="M156.04,30.12c-10.53,0-18.4,1.73-18.4,5.86,0,1.52.47,2.83,1.76,5.15l7,11.51c-.03-.05-.68-1.58-.68-3.43,0-6.93,6.14-10.89,13.12-12.33,2.03-.42,4.1-.62,6.14-.62,1.71,0,3.31.09,4.55.54-.73-2.65-2.65-6.68-13.48-6.68Z"/>
        <path id="Blue_Gradient" data-name="Blue Gradient" class="cls-1" d="M128.33,22.94c2.9,4.75,3.97,5.93,10.87,5.94h13.17l-18.16-22.94c-4.01-4.96-6.32-5.86-10-5.94h-9.84l13.96,22.94Z"/>
      </g>
      <path class="cls-5" d="M193.42,70.37c0,.9-.72,1.63-1.63,1.63s-1.63-.72-1.63-1.63.72-1.63,1.63-1.63,1.63.73,1.63,1.63ZM190.48,70.37c0,.72.58,1.31,1.31,1.31s1.31-.59,1.31-1.31-.59-1.31-1.31-1.31-1.31.59-1.31,1.31ZM191.75,70.48h-.15v.67h-.29v-1.62h.48c.37,0,.58.19.58.48,0,.33-.27.41-.32.43l.39.71h-.33l-.36-.67ZM191.71,70.27c.24,0,.36-.11.36-.28,0-.16-.13-.27-.36-.27-.07,0-.11.01-.12.01v.52s.06.01.12.01Z"/>
    </g>
  </g>
</svg>