<?xml version="1.0" encoding="UTF-8"?>
<svg id="Layer_2" data-name="Layer 2" xmlns="http://www.w3.org/2000/svg" viewBox="0 0 175.75 47.21">
  <defs>
    <style>
      .cls-1 {
        fill: #fff;
      }

      .cls-1, .cls-2, .cls-3, .cls-4 {
        fill-rule: evenodd;
      }

      .cls-2 {
        fill: #6e3f99;
      }

      .cls-3 {
        fill: #cf3792;
      }

      .cls-4 {
        fill: #ee926c;
      }
    </style>
  </defs>
  <g id="Layer_1-2" data-name="Layer 1">
    <g>
      <path class="cls-2" d="M174.75,22.79v-14.19h-2.24v9.27s-10.13-8.76-10.13-8.76c-.38-.33-.91-.51-1.47-.51h-2.56v14.19h2.27v-9.38l10.19,8.81c.42.36.95.57,1.53.57h2.4Z"/>
      <path class="cls-2" d="M131.75,20.53v-11.92h-2.19,0c-1.25,0-2.26,1.01-2.26,2.26v11.92h2.22c1.23-.02,2.22-1.02,2.22-2.26h0Z"/>
      <path class="cls-2" d="M139.3,20.53v-11.92h-2.18c-1.25,0-2.26,1.01-2.26,2.26v11.92h2.22c1.23-.02,2.22-1.02,2.22-2.26h0Z"/>
      <path class="cls-2" d="M68.8,8.6h0c-1.25,0-2.26,1.01-2.26,2.26v3.76h-7.46v-6.02h-2.18c-1.25,0-2.26,1.01-2.26,2.26v11.93h2.22c1.23,0,2.23-1.03,2.23-2.26v-3.66h7.46v5.93h2.22c1.24,0,2.22-1.03,2.23-2.26v-11.93h-2.19Z"/>
      <path class="cls-2" d="M84.2,22.79h4.99l-6.86-13.06c-.38-.72-1.13-1.21-2-1.21s-1.62.49-2,1.21l-6.86,13.06h2.58l1.88-3.57h6.4l1.88,3.57h0ZM76.94,17.27l2.18-4.15,2.18,4.15h-4.36Z"/>
      <path class="cls-2" d="M121.42,22.79h4.99l-6.86-13.06c-.38-.72-1.13-1.21-2-1.21s-1.62.49-2,1.21l-6.86,13.06h2.58l1.88-3.57h6.4l1.88,3.57h0ZM114.17,17.27l2.18-4.15,2.18,4.15h-4.36Z"/>
      <path class="cls-2" d="M152.51,22.79h4.99l-6.86-13.06c-.38-.72-1.13-1.21-2-1.21s-1.62.49-2,1.21l-6.86,13.06h2.58l1.88-3.57h6.4l1.87,3.57h0ZM145.26,17.27l2.18-4.15,2.18,4.15h-4.36Z"/>
      <path class="cls-2" d="M101.27,9.38c-.23-.51-.74-.86-1.33-.86s-1.11.36-1.34.88l-3.7,8.52-4.25-8.1c-.39-.74-1.29-1.22-2.18-1.22h-3.44s6.66,12.69,6.66,12.69c.47.89,1.21,1.5,2.21,1.5h1.38l3.53-8.14,3,6.64c.39.87,1.21,1.5,2.21,1.5h1.63l7.41-14.19h-1.07c-.89,0-1.69.48-2.07,1.22l-4.54,8.65-4.1-9.09h0Z"/>
      <path class="cls-2" d="M88.64,33.38v-.96c0-.37.06-.63.18-.78.12-.15.35-.23.68-.23.3,0,.52.08.64.23.13.15.19.41.19.78v.96h-1.7ZM92.49,32.78c0-.84-.24-1.45-.71-1.83-.47-.39-1.23-.58-2.28-.58-.98,0-1.72.21-2.23.62-.51.41-.77,1.01-.77,1.8v6.52h2.14v-4.74h1.7v4.74h2.14v-6.52h0Z"/>
      <polygon class="cls-2" points="95.47 39.3 97.61 39.3 97.61 30.45 95.47 30.45 95.47 39.3 95.47 39.3"/>
      <path class="cls-2" d="M104.09,33.85c-.14.19-.37.29-.69.29h-.61v-2.7h.56c.36,0,.61.09.75.28.14.19.21.56.21,1.1,0,.49-.07.84-.21,1.03h0ZM107.25,38.31c-.28,0-.46-.04-.55-.12-.09-.08-.14-.22-.14-.43v-1.84c0-.39-.14-.72-.42-.99-.28-.26-.67-.42-1.18-.47.5-.13.88-.35,1.13-.67.25-.32.38-.75.38-1.28,0-.7-.2-1.22-.62-1.56-.41-.34-1.06-.51-1.96-.51h-3.26v8.85h2.14v-4.09h.88c.26,0,.46.06.6.17.14.11.21.28.21.51v1.54c0,.66.17,1.13.52,1.43.35.29.93.44,1.76.44h.49v-.98h0Z"/>
      <path class="cls-2" d="M114.63,39.3h-2.69c-.82,0-1.45-.18-1.89-.55-.44-.37-.65-.89-.65-1.58v-6.72h2.14v6.67c0,.48.1.8.32.96.21.16.5.24.88.24h1.89v.98h0Z"/>
      <polygon class="cls-2" points="116.92 39.3 119.07 39.3 119.07 30.45 116.92 30.45 116.92 39.3 116.92 39.3"/>
      <path class="cls-2" d="M127.81,39.3h-2.14v-7c0-.26-.08-.46-.25-.59-.17-.13-.43-.2-.79-.2h-.38v7.8h-2.14v-8.85h1.7l.24.39c.19-.13.43-.23.71-.3.28-.06.59-.09.92-.09.68,0,1.21.16,1.59.47.38.32.57.75.57,1.3v7.07h0Z"/>
      <path class="cls-2" d="M135.63,39.3h-2.45c-.9,0-1.58-.19-2.04-.56-.46-.37-.69-.94-.69-1.7v-4.31c0-.91.2-1.51.6-1.82.4-.31,1.13-.46,2.21-.46h2.11v.98h-1.54c-.47,0-.79.09-.97.26-.17.17-.26.47-.26.9v.76h2.55v1.2h-2.55v2.28c0,.53.11.91.32,1.13.21.23.59.34,1.12.34h1.6v.98h0Z"/>
      <path class="cls-2" d="M143.1,36.94c0,.82-.25,1.44-.76,1.86-.51.42-1.25.63-2.22.63-.88,0-1.56-.19-2.05-.57-.49-.38-.74-.93-.74-1.64h2.01c0,.29.07.52.21.68.14.16.35.24.63.24s.51-.07.66-.21c.16-.14.24-.33.24-.58,0-.26-.06-.5-.19-.71-.12-.21-.31-.42-.57-.64-.13-.12-.45-.36-.94-.73-.49-.37-.78-.58-.87-.65-.38-.31-.66-.64-.85-.97-.18-.34-.27-.7-.27-1.08,0-.66.25-1.2.76-1.6.51-.4,1.17-.6,1.98-.6s1.45.19,1.92.58c.47.39.7.92.7,1.61h-2.01c0-.29-.06-.51-.18-.66-.12-.15-.31-.23-.57-.23-.22,0-.39.06-.5.18-.11.12-.17.28-.17.48,0,.16.06.32.17.48.11.16.32.35.63.58.04.03.32.23.83.6.51.37.88.64,1.1.83.38.33.65.67.81,1.01.16.34.24.72.24,1.14h0Z"/>
      <polygon class="cls-2" points="82.87 34.02 54.28 35.17 82.64 36.32 82.64 34.02 82.87 34.02 82.87 34.02"/>
      <polygon class="cls-2" points="147.15 34.02 175.75 35.17 147.39 36.32 147.39 34.02 147.15 34.02 147.15 34.02"/>
      <path class="cls-2" d="M144.75,37.69c.44,0,.79.35.79.79s-.35.79-.79.79-.79-.36-.79-.79.35-.79.79-.79h0ZM145.21,39.01l-.12-.21c-.11-.18-.13-.21-.22-.24h0c.18-.03.28-.14.28-.3,0-.17-.11-.29-.33-.29h-.52v1.05h.21v-.43h.04c.09,0,.13.01.17.05.04.04.1.13.14.2l.08.17h.26ZM144.51,38.41v-.29h.19c.14,0,.22.05.22.14,0,.07-.05.14-.19.14h-.22ZM144.75,37.5c-.54,0-.98.44-.98.98s.44.98.98.98.99-.44.99-.98-.44-.98-.99-.98h0Z"/>
      <path class="cls-1" d="M46.91,16.71c.02-.2.05-.41.05-.62,0-.77-.14-1.53-.42-2.23.27-.47.42-.98.42-1.51,0-.29-.04-.59-.13-.89-.31-1.05-.43-2.08-.43-2.54,0-.07,0-.12,0-.17l.11-.9-.89.19c-.5.11-1.11-.24-1.65-.54l-.58-.31c-.36-.16-1.13-.52-1.98-.44-.11-.83-.97-2.22-3.57-2.45-1.14-.1-1.93-.36-2.12-.51l-.54-.41-.34.5C32.32,1.58,27.91.11,24.85,0c-1.11-.04-6.71-.03-10.06,3.48-2.31-.19-8,1.09-11.68,9.23-.17.37-.48,1.05-.05,1.52.13.14.34.27.68.25-.16.12-.31.24-.45.37-2.55,2.56-3.29,5.23-3.29,7.46,0,2.55.97,4.54,1.3,5.16.21.38.47.8.95.9.32.07.61-.04.85-.18-.49.7-.6,1.41-.6,2.08,0,.1,0,.21,0,.31.15,3.76,4.48,8.07,7.53,9.51.56.26,1.04.47,1.47.16.3-.21.36-.55.37-.82.38,1.4,1.27,2.46,2.63,3.06.84.37,1.81.58,2.83.8,2.33.5,4.73,1.01,6.3,3.5.21.35.48.41.68.41.16,0,.45-.07.64-.45.28-.6.48-1.19.64-1.78.03.11.09.22.21.32.44.39.94.04,1.38-.27,2.43-1.71,5.2-2.5,7.07-2.95,3.34-.8,5.83-1.77,7.59-2.96,3.73-2.5,4.56-5.63,4.73-7.28.02-.2.03-.39.03-.58,0-1.17-.37-2.23-1.08-3.11,0,0,.02,0,.02.01.67.46,1.24.74,1.98-.27.7-.95,1.47-2.86,1.47-5.12,0-1.89-.54-4.03-2.09-6.05h0Z"/>
      <path class="cls-2" d="M45.89,27.53c.55.39.67.46,1.1-.13,1.02-1.38,2.74-6.23-.77-10.6.16-1.08-.02-2.2-.45-3.1-.26.35-.62.66-1.04.9-.36-.56-1.08-.83-1.72-.86-.38-.01-.27.14-.09.22,2.67,1.12,1.73,4.22,1.38,4.88-.35.67-.28,1.52-.28,1.52-.83-.24-1.58-.04-2.25.07-1.32.21-2.21-.03-2.89-.34-.55-.25-1.41-.82-1.54-1.91-.02-.2-.15-.34-.23.03-.13.63-.04,1.4.41,1.88-.49,2.43-5.25,2.25-5.25,2.25-.28-.92-1.98-1.28-2.72-2.38h0s0,0,0,0c-.07,2.73-1.18,4.71-1.7,5.39-.05.06-.02.13.09.11.73-.11,1.7-.89,2.15-1.49.12-.16.25-.1.26.06.78,7.6-2.12,16.24-3.68,19.63-.42.91-.87,1.44.12.74,2.43-1.71,5.21-2.55,7.29-3.05,4.06-.98,6.18-2.05,7.39-2.86,2.98-2,4.22-4.59,4.45-6.81.39-3.89-3.63-5.04-3.76-5.11-.13-.07-.05-.15.11-.16,1.11-.05,2.45.31,3.63,1.13h0Z"/>
      <path class="cls-3" d="M6.38,26.4c.16,0,.25.11.11.16-3.33,1.29-3.42,2.72-3.38,3.9.13,3.41,4.27,7.59,7.16,8.95.71.32.99.45.91-.34-.05-1.99.8-3.4,1.27-3.96.1-.12.21-.14.19.01-.02.15-1.64,5.04,2.09,6.68,2.63,1.16,6.97.67,9.42,4.55.09.15.13.14.19.01,2.28-4.98-.02-9.58-.4-10.59,1.16-.64,2.25-1.44,2.96-2.33.56-.7.78-1.19.92-1.48.17-.35.11-.53-.19-.36-1.84,1.05-5.64,2.54-11.06,1.49,0,0-1.49-.22-1.27-1.73.06-.42.27-.86.44-1.28.06-.15.26-.72.07-1-.19-.27-.31-.47-.2-.82.08-.25.44-.59,1.02-.73.51-.12,1.37-.19,2.08-.13.19.02.39,0,.51-.02.2-.02.32-.19.26-.38-.05-.14-.16-.24-.31-.64-.12.25-.25.36-.57.31-.32-.05-.97-.27-1.57-.43-.59-.16-.98-.07-1.32.41-.34.48-.33,0-.3-.16.05-.25.41-.62.45-.85.03-.18.07-.43-.42-.78-.35-.25-.59-.45-.74-.6-.48-.48-.56-.98.35-1.75.65-.55,2.09-2.04,2.52-2.94.07-.14.42-.71.03-1.27-.29-.44-.34-.52-.42-.67-.21-.41-.06-.77.29-1.31.17-.26.3-.58.66-1.72.43-1.35,1.25-2.77,2.3-3.64.44-.86.16-2.29,1.94-3.85,1.41-1.24,6.24-2.89,11.97-1.97.18-.15.33-.28.45-.39-2.13-2.32-6.73-4.06-10.03-4.18-2.25-.08-7.06.4-9.79,3.52-2-.35-7.71.82-11.34,8.82-.35.77-.25.98.24.81,1.53-.54,2.9-.57,3.57-.41.3.07.17.18.12.19-.06,0-.16.04-.39.09-.71.13-2.53.76-3.5,1.67-5.35,5.37-2.2,11.21-1.86,11.84.35.63.54.76,1.08.35.49-.37,1.71-1.01,3.47-1.02h0Z"/>
      <path class="cls-3" d="M17.66,24.57c-.16.28-.48.64-1.21.2-.63-.38-.79-.46-1.14-.62-.07-.03-.13-.07-.11-.13.02-.05.15-.08.35-.04.39.07.99.23,1.12.25.13.01.52.1.68-.06.14-.14.28-.21.35-.1.07.11,0,.42-.04.5h0Z"/>
      <path class="cls-4" d="M45.72,8.58c-.06.46.09,1.76.44,2.96.37,1.27-.29,2.4-1.43,3.06-.36-.56-1.08-.83-1.72-.86-.38-.01-.27.14-.09.22,2.67,1.12,1.73,4.22,1.38,4.88-.35.67-.28,1.52-.28,1.52-.83-.24-1.58-.04-2.25.07-1.32.21-2.21-.03-2.89-.34-.55-.25-1.41-.82-1.54-1.91-.02-.2-.15-.34-.23.03-.13.63-.04,1.4.41,1.88-.49,2.43-5.25,2.25-5.25,2.25-.32-1.05-2.48-1.37-2.97-2.89-.23-.72-.04-1.48-.04-1.48,1.24.3,1.96-.3,2.37-.8.24-.29.05-.31-.12-.2-1.58,1-3.04,0-3.35-1.41-.41-1.54-1.91-2.04-1.91-2.04,1.09-.69.79-1.88,1.36-2.88,1.5-2.65,3.62-1.85,3.62-1.85.21.63.83,1.08,1.45,1.27.36.11.3-.07.14-.19-1.51-1.09-1.14-2.82.05-3.63,2.08-1.41,2.43-2.03,2.43-2.03.38.29,1.39.54,2.46.63,2.38.21,2.95,1.45,2.99,1.93-.28.15-.76.6-.99,1.31-.11.36.07.3.19.14.93-1.27,2.07-1.03,3.14-.54.68.31,1.66,1.1,2.63.89h0Z"/>
      <path class="cls-2" d="M31.22,8.79c.21.63.83,1.08,1.45,1.27.17.05.25.04.26,0-.02-.04-.03-.08-.05-.11-.02-.02-.05-.05-.08-.07-1.51-1.09-1.14-2.82.05-3.63.67-.45,1.16-.83,1.51-1.12-5.74-.92-10.56.73-11.97,1.97-1.78,1.56-1.5,2.99-1.94,3.85.74-.55,1.56-.9,2.56-1.13,2.55-.57,3.84.36,4.44,1.1.04-.09.08-.18.13-.27,1.5-2.65,3.62-1.85,3.62-1.85h0Z"/>
      <path class="cls-2" d="M34.8,16.19c.02.12.07.15.16.04.38-.49,1.03-1.27,2.06-1.71,1.23-.53,1.81-1.33,1.98-2.12.1-.47.08-1.28.6-1.89.17-.19-.05-.2-.21-.13-.15.07-.94.49-1.35,1.23-.46-.31-.56-.85-.58-1.18,0-.1-.09-.15-.19-.02-.34.44-.51.95-.53,1.3,0,0-.39-.16-.36-.81,0-.11-.06-.05-.09-.02-.5.58-.29,1.23-.28,1.32,0,0-.69-.19-1.65-.1-.31-.59-1.35-.51-1.36.16-.01.61,1.05.83,1.35.25,0,0,1.35-.17,2.79.72.15.09.21.18.15.26-.04.06-.24,0-.48-.09-.27-.11-2.11-.76-3.32.27-.06.05-.05.11.02.11.28.01.9.08,1.14.42-.34.18-.88.55-1.1,1.52-.06.25.09.25.19.13.12-.14.87-.82,1.2-.86,0,0-.19.5-.14,1.18h0Z"/>
      <path class="cls-3" d="M22.44,17.49c-.47-.28-1.11-.26-1.23-.29-.13-.02-.15-.15.04-.24.26-.12.74-.02.75-.1.02-.07-.09-.25-.46-.39-.36-.14-1.17-.11-1.58-.04-.41.07-.77-.29-.12-.84.64-.54,1.56-.43,1.91-.48.35-.05.2-.2.11-.24-.09-.04-.57-.32-1.41-.26-.84.05-1.56.54-2,1.05-.24.27-.35.55-.39.78-.04.44.31.62.68.46.19-.08.31-.1.46-.09.18.02.29.18.23.23-.09.07-.2.17-.25.41-.06.27.13.48.29.75.08.14.16.23.18.34.04.15.01.2-.11.3-.14.11-.06.29.22.22.31-.09.48-.17.71-.37.33-.28.33-.46.56-.69.23-.23.96-.23,1.34-.18.44.06.54-.05.07-.32h0Z"/>
    </g>
  </g>
</svg>