<svg xmlns="http://www.w3.org/2000/svg" width="223.22" height="50.75" viewBox="0 0 223.22 50.75"><title>Japan Airlines logo - Brandlogos.net</title><polygon points="25.74 41.09 27.69 41.09 27.61 38.77 25.74 41.09" style="fill:#e60012"/><path d="M323,386.24a25.51,25.51,0,0,0-.13-5.62s0,0,0,0a15.18,15.18,0,0,1-5.57,8.55,0,0,0,1,1,0,0,18.58,18.58,0,0,0,5.12-11.33,25.48,25.48,0,0,0-2.58-6.39s0,0,0,0a17.44,17.44,0,0,1-4.39,14.08s-.07,0,0,0a19.73,19.73,0,0,0,2.86-16.54,25.36,25.36,0,0,0-40.82,0,19.73,19.73,0,0,0,2.85,16.54s0,.07,0,0a17.42,17.42,0,0,1-4.39-14.08s0,0,0,0a25.36,25.36,0,0,0-2.57,6.39,18.51,18.51,0,0,0,5.12,11.33,0,0,0,1,1,0,0,15.15,15.15,0,0,1-5.58-8.55s0,0,0,0a25.86,25.86,0,0,0-.12,5.62,15.27,15.27,0,0,0,4.64,6.67s0,.07,0,.05A13.63,13.63,0,0,1,273,389.2s0,0,0,0a25.37,25.37,0,0,0,49.66,0s0,0,0,0a13.65,13.65,0,0,1-4.14,3.76s-.06,0,0-.05a15.27,15.27,0,0,0,4.64-6.67m-34.69,16.54a11.15,11.15,0,0,1-2.4-.24l.59-1.54c1.58.19,2.95.05,3.47-1.34l1.69-4.38h3.46l-1.85,4.83c-.95,2.47-3.28,2.67-4.94,2.67m11.84-.24-.06-1.43H297l-1.15,1.43H293l5.8-6.72a1.48,1.48,0,0,1,1.06-.54H303l.69,7.26Zm12.24,0h-7.85l2.79-7.26h3.46l-2.2,5.72H313Zm-3.19-15.32c-5.19,5-12.94,1.82-12.15-4.37.6-4.79,6.47-9.54,10.9-12.13a0,0,0,0,0,0-.06c-.58-.55-1.78-1.81-2.57-2.74a5.09,5.09,0,0,0-8.15.15l-12.76,1.19a0,0,0,1,0,0,.08l13.67.79c2.43.13,3.22,2.34.88,4.11-8.69,6.59-10.24,13.55-8.3,19.07a0,0,0,0,1-.06,0,11.2,11.2,0,0,1-1.72-4,16.33,16.33,0,1,1,20.24-2.15" transform="translate(-272.39 -358.63)" style="fill:#e60012"/><polygon points="163.49 21.04 157.9 21.04 153.21 12.48 149.93 21.04 144.35 21.04 149.91 6.55 156.4 6.55 160.54 14.16 163.46 6.55 169.05 6.55 163.49 21.04"/><path d="M352,374.81c-1.88,4.93-6.56,5.34-9.88,5.34a22.2,22.2,0,0,1-4.8-.49l1.18-3.07c3.17.37,5.87.1,6.93-2.67l3.36-8.75h6.91l-3.7,9.64" transform="translate(-272.39 -358.63)"/><path d="M391.12,365.17H380.37l-5.56,14.49h6.91l2-5.26h3.84c6.39,0,9.83-1.71,10.94-4.62s-1-4.62-7.4-4.62m.49,4.62a3.26,3.26,0,0,1-3,1.83h-3.83l1.4-3.67h3.85c1.26,0,2,.77,1.55,1.83" transform="translate(-272.39 -358.63)"/><path d="M371.68,365.17H365.5a3,3,0,0,0-2.13,1.08l-11.57,13.42h5.71l2.3-2.85H366l.11,2.85h6.91l-1.38-14.49M362,374l3.72-4.63.18,4.63Z" transform="translate(-272.39 -358.63)"/><path d="M413.6,365.17h-6.18a3,3,0,0,0-2.13,1.08l-11.57,13.42h5.71l2.29-2.85H408l.11,2.85H415l-1.38-14.49M404,374l3.72-4.63.17,4.63Z" transform="translate(-272.39 -358.63)"/><path d="M493.72,398.3c-1.45,3.79-6.49,5-11.93,5s-8.92-1.18-8.11-5h6.91c-.17,1,.44,1.65,2.48,1.65s3.36-.65,3.74-1.65c1-2.48-12.72-.06-10.54-5.73,1.21-3.17,6-4.66,11.42-4.66s8.48,1.16,7.83,4.66h-6.77c.1-.94-.18-1.65-2.21-1.65s-3.13.72-3.49,1.65c-1,2.52,12.84.07,10.67,5.73" transform="translate(-272.39 -358.63)"/><polygon points="100.39 44.22 93.47 44.22 99.03 29.72 105.94 29.72 100.39 44.22"/><polygon points="152.66 44.22 145.75 44.22 151.31 29.72 158.22 29.72 152.66 44.22"/><polygon points="197.18 44.22 180.38 44.22 185.95 29.72 202.75 29.72 201.67 32.51 191.78 32.51 190.66 35.43 198.89 35.43 197.82 38.2 189.59 38.2 188.47 41.14 198.35 41.14 197.18 44.22"/><polygon points="176.09 44.22 170.5 44.22 165.82 35.66 162.53 44.22 156.95 44.22 162.51 29.72 169.01 29.72 173.14 37.34 176.07 29.72 181.65 29.72 176.09 44.22"/><path d="M393.37,388.35H382.63l-5.57,14.49H384l2-5.26h2.09l1.36,5.26H397l-1.85-5.79c3.06-.72,4.88-2.13,5.63-4.09,1.12-2.9-1-4.62-7.4-4.62m.49,4.62a3.26,3.26,0,0,1-3,1.83h-3.84l1.41-3.67h3.85c1.26,0,2,.78,1.55,1.84" transform="translate(-272.39 -358.63)"/><polygon points="136.11 41.14 140.51 29.72 133.6 29.72 128.04 44.22 143.72 44.22 144.91 41.14 136.11 41.14"/><path d="M362.72,388.35h-6.18a3,3,0,0,0-2.13,1.07l-11.57,13.42h5.7l2.3-2.85h6.24l.11,2.85h6.91l-1.39-14.49m-9.63,8.85,3.72-4.63.17,4.63Z" transform="translate(-272.39 -358.63)"/></svg>