<?xml version="1.0" encoding="UTF-8"?>
<svg id="Layer_2" data-name="Layer 2" xmlns="http://www.w3.org/2000/svg" viewBox="0 0 923.08 107.55">
  <defs>
    <style>
      .cls-1 {
        fill: #f4ca35;
      }

      .cls-2 {
        fill: #2b4779;
      }
    </style>
  </defs>
  <g id="Layer_1-2" data-name="Layer 1">
    <path class="cls-2" d="M199.03,106.79l-28.87-37.04h-10.86v37.04h-33.1V9.31h49.26c36.02,0,59.06,10.16,59.06,30.36,0,13.65-13.24,22.13-31.25,26.59l31.78,40.53h-36.02ZM173.87,26.29h-14.57v27.16h16.42c16.95,0,25.69-4.6,25.69-13.51,0-8.77-7.67-13.65-27.54-13.65h0ZM317.44,70.01v36.76h-33.1v-36.48l-47.67-61h36.55l14.3,19.77c6.09,8.49,12.19,18.11,13.78,22.7,1.85-4.6,7.94-14.63,13.77-22.7l14.3-19.77h36.02l-47.94,60.71h0ZM442.6,106.79l-8.73-20.33h-41.57l-8.74,20.33h-33.9l47.4-97.48h32.31l47.4,97.48h-34.17ZM421.69,58.61c-3.18-7.52-7.41-18.81-8.74-23.67-1.33,5.01-5.03,15.45-8.48,23.39l-5.03,11.85h27.28l-5.03-11.56h0ZM566.83,106.79l-34.16-43.45c-4.77-6.13-10.6-14.07-14.04-19.77.26,5.99.53,16.01.53,22.14v41.08h-30.19V9.32h33.37l32.58,42.76c4.5,5.84,11.13,14.9,14.56,20.33-.26-5.99-1.06-16.57-1.06-22.71V9.32h30.19v97.47h-31.78ZM705.49,106.79l-8.75-20.33h-41.58l-8.74,20.33h-33.9l47.4-97.48h32.31l47.4,97.48h-34.16ZM684.56,58.61c-3.18-7.52-7.41-18.81-8.74-23.67-1.33,5.01-5.03,15.45-8.48,23.39l-5.03,11.85h27.28l-5.04-11.56h0ZM752.63,9.29h33.1v97.48h-33.1V9.29ZM887.07,106.79l-28.87-37.04h-10.86v37.04h-33.11V9.31h49.26c36.02,0,59.05,10.16,59.05,30.36,0,13.65-13.23,22.13-31.24,26.59l31.77,40.53h-36.01s0,0,0,0ZM861.91,26.29h-14.56v27.16h16.41c16.95,0,25.69-4.6,25.69-13.51,0-8.77-7.67-13.65-27.54-13.65h0Z"/>
    <g>
      <path class="cls-1" d="M72.02,5.83c6.86,2.29,14.12,4.05,21.52,4.89l5.16.05.16-.14c3.09.08,5.37-1.27,8.37-1.93.32-.08,1.1-.27,1.43.17.15.57-.08,1.2-.73,1.62-3.68,2.81-8.06,4.9-12.19,6.41v-.08c-1.36.26-2.81.84-4.21,1.31-5.09,1.54-10.88,2.51-16.36,2.11-10.49-.54-19.4-4.29-28.66-3.84-9.09-.53-17.74,2.94-22.58,9.8-2.48,3.59-4.46,7.37-5.07,11.53.27,3.77,5.56,5.21,7.54,8.33,1.14,1.88,1.7,3.96,2.56,5.91,2.2,3.94,4.37,7.88,7.07,11.58l-.07.08c1.58,2.48,4.1,4.63,7.08,6.08,3.86,2.76,7.27,6.22,9.3,9.94l-.11.06c2.28,3.64,3.56,7.41,5.33,11.2.79,2.33,1.66,4.37,2.34,6.64.23.21.23.55.37.85.62,1.79,1.16,3.7,1.92,5.36-.33.25.26.35.19.59.04,1.01,1.02,2.52-.29,3.19-1.91-1.68-2.91-4.16-3.94-5.95-2.25-3.93-4.83-7.72-7.61-11.46l.08-.08c-1.7-2.14-3.59-4.55-5.54-6.77-8.22-9.1-20.29-14.56-29.11-23.22l-.08.08c-.75-.67-1.24-1.57-1.84-2.34l.06-.08c-1.08-1.51-1.71-3.22-2.75-4.76l.06-.08c-2.73-4.07-5.36-8.38-7.12-12.66-.37-1.89-1.02-3.52-1.16-5.7l-.21-.71c.11-1.98-4.81-3.13-2.1-6.94,1.7-1.83,8.28-4.1,10.52-7.54.05-.51.17-1.13-.27-1.59,0-.37-.38-.76-.65-1.14-1.25-1.55-4.62-.33-4.57-2.61.35-.02.02-.32.24-.45-.19-1.13-.27-1.87.05-2.83.68-1.87,1.35-4.03,1.21-5.92.14-.71.85-1.13,1.56-1.41,1.4-.35,2.63-.54,4-.72l.17.14c3.18-.26,6.99-.03,9.1,2.46.91,1.89.2,4.14-.31,6.05-.16,1.1-1.36,1.99-1.08,3.15.42.43,1.29.4,1.85.16,4.8-2.91,8.98-6.94,12.48-11.01C38.35.59,43.09-.45,47.45.17c8.83.68,16.3,3.64,24.54,5.65h.03Z"/>
      <path class="cls-1" d="M49.25,21.77c1.24,1.66-.42,3.12-.92,4.57-5.18,7.79-6.99,16.6-10.43,24.94-.26.29-.77.37-1.14.26-.92-.65-.92-1.73-.81-2.68.69-9.04,3.08-17.52,6.93-25.6.9-1.29,2.43-2.76,4.41-2.45.75.16,1.41.42,1.96.96h0ZM62.91,24.13c.66,2.97-1.47,5.41-2.41,8.07-5.04,10.07-11.1,19.92-14.09,30.69-.14.34-.34.81-.74.96-.43.12-.79-.1-.9-.4-1.01-4.28.15-8.73,1.25-12.8,2.87-9.04,6.35-18.28,11.21-26.69.56-.43.65-.79,1.36-.99,1.69-.18,3.39-.05,4.32,1.16h0ZM77.5,24.64c1.36,1.02.66,2.96.12,4.16-5.91,13.09-15.49,24.38-19.45,38.11-1.09,2.91-1.81,5.92-2.71,8.85-.16.53-.93.54-1.48.41-.53-1.24-.37-2.83-.37-4.17,1.25-11.03,3.88-21.75,9.27-31.35,2.45-4.8,4.82-9.11,7.39-13.79.73-1.32,1.94-2.52,3.71-2.96,1.3-.08,2.55.23,3.52.74h0ZM93.69,25.31c.95,1.59.03,3.33-.4,4.85-3.76,10.52-10.79,19.23-16.44,28.81-4.84,7.87-8,16.62-11.22,25.17-1.11,2.57-1.52,5.42-2.87,7.86-.11.26-.46.11-.69.17-.83-.7-.72-1.7-.92-2.59.64-10.7,4.76-20.37,8.64-30.03,4.85-10.77,11.35-21.06,15.77-32.19.62-1.4,1.83-3.12,3.71-3.65,1.88-.28,3.3.39,4.42,1.6h0Z"/>
    </g>
  </g>
</svg>