<?xml version="1.0" encoding="UTF-8" standalone="no"?>
<svg
   xmlns:dc="http://purl.org/dc/elements/1.1/"
   xmlns:cc="http://creativecommons.org/ns#"
   xmlns:rdf="http://www.w3.org/1999/02/22-rdf-syntax-ns#"
   xmlns:svg="http://www.w3.org/2000/svg"
   xmlns="http://www.w3.org/2000/svg"
   xmlns:sodipodi="http://sodipodi.sourceforge.net/DTD/sodipodi-0.dtd"
   xmlns:inkscape="http://www.inkscape.org/namespaces/inkscape"
   version="1.0"
   width="224"
   height="104"
   id="svg2489"
   xml:space="preserve"
   sodipodi:version="0.32"
   inkscape:version="1.0.2-2 (e86c870879, 2021-01-15)"
   sodipodi:docname="Wizz_Air_logo.svg"
   inkscape:output_extension="org.inkscape.output.svg.inkscape"><metadata
     id="metadata2511"><rdf:RDF><cc:Work
         rdf:about=""><dc:format>image/svg+xml</dc:format><dc:type
           rdf:resource="http://purl.org/dc/dcmitype/StillImage" /><dc:title></dc:title></cc:Work></rdf:RDF></metadata><sodipodi:namedview
     inkscape:window-height="1014"
     inkscape:window-width="1920"
     inkscape:pageshadow="2"
     inkscape:pageopacity="0.0"
     guidetolerance="10.0"
     gridtolerance="10.0"
     objecttolerance="10.0"
     borderopacity="1.0"
     bordercolor="#666666"
     pagecolor="#ffffff"
     id="base"
     showgrid="false"
     inkscape:zoom="2.5217993"
     inkscape:cx="41.042127"
     inkscape:cy="17.706069"
     inkscape:window-x="-8"
     inkscape:window-y="-8"
     inkscape:current-layer="svg2489"
     inkscape:document-rotation="0"
     inkscape:snap-page="true"
     inkscape:snap-grids="false"
     inkscape:window-maximized="1" /><defs
     id="defs2492"><inkscape:perspective
       sodipodi:type="inkscape:persp3d"
       inkscape:vp_x="0 : 53.810299 : 1"
       inkscape:vp_y="0 : 1000 : 0"
       inkscape:vp_z="219.68442 : 53.810299 : 1"
       inkscape:persp3d-origin="109.84221 : 37.080399 : 1"
       id="perspective2513" /><inkscape:perspective
       id="perspective2522"
       inkscape:persp3d-origin="372.04724 : 354.40799 : 1"
       inkscape:vp_z="744.09448 : 529.80169 : 1"
       inkscape:vp_y="0 : 1000 : 0"
       inkscape:vp_x="0 : 529.80169 : 1"
       sodipodi:type="inkscape:persp3d" /></defs><g
     transform="matrix(1.25,0,0,-1.25,-8.47229,172.4728)"
     id="g2498"><path
       d="M 134.18352,124.14552 H 184.2516 L 149.47032,79.30128 h 24.86448 l -2.0316,-12.62616 h -49.58448 l 33.86256,44.84424 h -22.39776 v 12.62616"
       id="path2504"
       style="fill:#c6037c;fill-opacity:1;fill-rule:evenodd;stroke:none" /><path
       d="m 96.35352,130.53096 h 54.47064 l -39.03864,-49.9716 h 21.43032 L 122.71872,66.67512 H 82.47 l 37.44288,49.97232 -26.89704,0.0478 3.33768,13.83576"
       id="path2506"
       style="fill:#660f6f;fill-opacity:1;fill-rule:evenodd;stroke:none" /><path
       d="M 89.91936,79.35 H 76.37448 l 9.24,57.18 H 99.25584 L 89.91936,79.35"
       id="path2508"
       style="fill:#c6037c;fill-opacity:1;fill-rule:evenodd;stroke:none" /><path
       d="m 80.87352,73.73808 c 4.78968,0 8.70744,-3.91776 8.70744,-8.75616 0,-4.83744 -3.91776,-8.75544 -8.70744,-8.75544 -4.83768,0 -8.7564,3.918 -8.7564,8.75544 0,4.8384 3.91872,8.75616 8.7564,8.75616"
       id="path2510"
       style="fill:#c6037c;fill-opacity:1;fill-rule:evenodd;stroke:none" /><path
       d="M 8.504064,127.33776 16.002192,66.67512 H 27.51552 L 44.7852,101.07 47.34936,66.67512 h 11.32032 l 30.08904,60.66264 H 71.87616 L 57.36288,94.6848 55.0416,127.33776 H 41.78616 L 26.40288,94.6848 23.887512,127.33776 H 8.504064"
       id="path2512"
       style="fill:#660f6f;fill-opacity:1;fill-rule:evenodd;stroke:none" /></g></svg>
